<svg width="800" height="600" xmlns="http://www.w3.org/2000/svg">
  <defs>
    <filter id="shadow" x="-20%" y="-20%" width="140%" height="140%">
      <feDropShadow dx="2" dy="2" stdDeviation="2" flood-opacity="0.2"/>
    </filter>
    <marker id="arrow" markerWidth="10" markerHeight="10" refX="9" refY="3" orient="auto" markerUnits="strokeWidth">
      <path d="M0,0 L0,6 L9,3 z" fill="#333" />
    </marker>
    <linearGradient id="grad1" x1="0%" y1="0%" x2="0%" y2="100%">
      <stop offset="0%" style="stop-color:#bbdefb;stop-opacity:1" />
      <stop offset="100%" style="stop-color:#90caf9;stop-opacity:1" />
    </linearGradient>
  </defs>

  <!-- Background -->
  <rect width="100%" height="100%" fill="white"/>

  <!-- Title -->
  <text x="400" y="40" font-family="Arial, sans-serif" font-size="24" font-weight="bold" text-anchor="middle" fill="#333">Database Application Life Cycle</text>

  <!-- Left Column -->
  <g transform="translate(150, 80)">
    <!-- 1. System Definition -->
    <rect x="-100" y="0" width="200" height="50" rx="10" ry="10" fill="url(#grad1)" stroke="#1976d2" stroke-width="2" filter="url(#shadow)"/>
    <text x="0" y="30" font-family="Arial" font-size="14" font-weight="bold" fill="#0d47a1" text-anchor="middle">1. System Definition</text>
    
    <!-- Arrow -->
    <line x1="0" y1="50" x2="0" y2="80" stroke="#333" stroke-width="2" marker-end="url(#arrow)"/>

    <!-- 2. Database Design -->
    <rect x="-100" y="80" width="200" height="50" rx="10" ry="10" fill="url(#grad1)" stroke="#1976d2" stroke-width="2" filter="url(#shadow)"/>
    <text x="0" y="110" font-family="Arial" font-size="14" font-weight="bold" fill="#0d47a1" text-anchor="middle">2. Database Design</text>

     <!-- Arrow -->
    <line x1="0" y1="130" x2="0" y2="160" stroke="#333" stroke-width="2" marker-end="url(#arrow)"/>

    <!-- 3. Implementation -->
    <rect x="-100" y="160" width="200" height="50" rx="10" ry="10" fill="url(#grad1)" stroke="#1976d2" stroke-width="2" filter="url(#shadow)"/>
    <text x="0" y="190" font-family="Arial" font-size="14" font-weight="bold" fill="#0d47a1" text-anchor="middle">3. Implementation</text>

     <!-- Arrow -->
    <line x1="0" y1="210" x2="0" y2="240" stroke="#333" stroke-width="2" marker-end="url(#arrow)"/>
    
    <!-- 4. Data Conversion -->
    <rect x="-100" y="240" width="200" height="50" rx="10" ry="10" fill="url(#grad1)" stroke="#1976d2" stroke-width="2" filter="url(#shadow)"/>
    <text x="0" y="270" font-family="Arial" font-size="14" font-weight="bold" fill="#0d47a1" text-anchor="middle">4. Data Loading</text>
  </g>

  <!-- Connection to Right Column -->
  <path d="M 150 370 Q 150 420 250 420 L 550 420 Q 650 420 650 370 L 650 300" stroke="#333" stroke-width="2" fill="none"/>
  <line x1="150" y1="370" x2="150" y2="380" stroke="#333" stroke-width="2"/> <!-- stub -->

  <!-- Right Column (Going Up or Continuing?) Let's put them on the right side flowing down for symmetry, connected by a bridge -->
  
  <g transform="translate(650, 80)">
      <!-- 5. App Conversion -->
    <rect x="-100" y="240" width="200" height="50" rx="10" ry="10" fill="url(#grad1)" stroke="#1976d2" stroke-width="2" filter="url(#shadow)"/>
    <text x="0" y="270" font-family="Arial" font-size="14" font-weight="bold" fill="#0d47a1" text-anchor="middle">5. App Conversion</text>

      <!-- Arrow -->
    <line x1="0" y1="230" x2="0" y2="210" stroke="#333" stroke-width="2" marker-end="url(#arrow)"/>

    <!-- 6. Testing -->
    <rect x="-100" y="160" width="200" height="50" rx="10" ry="10" fill="url(#grad1)" stroke="#1976d2" stroke-width="2" filter="url(#shadow)"/>
    <text x="0" y="190" font-family="Arial" font-size="14" font-weight="bold" fill="#0d47a1" text-anchor="middle">6. Testing</text>

      <!-- Arrow -->
    <line x1="0" y1="150" x2="0" y2="130" stroke="#333" stroke-width="2" marker-end="url(#arrow)"/>

    <!-- 7. Operation -->
    <rect x="-100" y="80" width="200" height="50" rx="10" ry="10" fill="#c8e6c9" stroke="#2e7d32" stroke-width="2" filter="url(#shadow)"/>
    <text x="0" y="110" font-family="Arial" font-size="14" font-weight="bold" fill="#1b5e20" text-anchor="middle">7. Operation</text>

      <!-- Arrow -->
    <line x1="0" y1="70" x2="0" y2="50" stroke="#333" stroke-width="2" marker-end="url(#arrow)"/>

    <!-- 8. Maintenance -->
    <rect x="-100" y="0" width="200" height="50" rx="10" ry="10" fill="#ffe0b2" stroke="#e65100" stroke-width="2" filter="url(#shadow)"/>
    <text x="0" y="30" font-family="Arial" font-size="14" font-weight="bold" fill="#bf360c" text-anchor="middle">8. Monitoring</text>
  </g>
  
  <!-- Connector from left bottom 4 to right bottom 5 -->
   <path d="M 150 290 Q 150 340 400 340 T 650 290" stroke="#333" stroke-width="2" fill="none" marker-end="url(#arrow)"/>
   
   <!-- Feedback Loop from Maintenance back to Design -->
   <path d="M 650 0 Q 650 -40 400 -40 Q 150 -40 150 70" stroke="#e65100" stroke-width="2" stroke-dasharray="5,5" fill="none" marker-end="url(#arrow)" transform="translate(0, 40)"/>
   <text x="400" y="20" font-family="Arial" font-size="12" fill="#e65100" text-anchor="middle">Feedback / New Requirements</text>

</svg>
